<?xml version="1.0" encoding="UTF-8"?>
<svg width="29px" height="36px" viewBox="0 0 29 36" version="1.1" xmlns="http://www.w3.org/2000/svg" xmlns:xlink="http://www.w3.org/1999/xlink">
    <!-- Generator: sketchtool 64 (101010) - https://sketch.com -->
    <title>72B7778C-EE67-471D-8EA9-60B39BB4261C</title>
    <desc>Created with sketchtool.</desc>
    <g id="360View-LISTO" stroke="none" stroke-width="1" fill="none" fill-rule="evenodd">
        <g id="360" transform="translate(-1377.000000, -349.000000)">
            <g id="Group-32" transform="translate(1377.000000, 348.999991)">
                <g id="Group-31" fill="#5A1584">
                    <path d="M12.2549,3.00000944 L16.7449,3.00000944 C16.8859,3.00000944 16.9999,3.18300944 16.9999,3.40800944 L16.9999,4.59200944 C16.9999,4.81700944 16.8859,5.00000944 16.7449,5.00000944 L12.2549,5.00000944 C12.1139,5.00000944 11.9999,4.81700944 11.9999,4.59200944 L11.9999,3.40800944 C11.9999,3.18300944 12.1139,3.00000944 12.2549,3.00000944" id="Fill-1"></path>
                    <path d="M7.4072,3.00000944 L9.5922,3.00000944 C9.8172,3.00000944 10.0002,3.18300944 10.0002,3.40800944 L10.0002,4.59200944 C10.0002,4.81700944 9.8172,5.00000944 9.5922,5.00000944 L7.4072,5.00000944 C7.1822,5.00000944 7.0002,4.81700944 7.0002,4.59200944 L7.0002,3.40800944 C7.0002,3.18300944 7.1822,3.00000944 7.4072,3.00000944" id="Fill-3"></path>
                    <path d="M13.4072,7.00000944 L15.5922,7.00000944 C15.8172,7.00000944 16.0002,7.18300944 16.0002,7.40800944 L16.0002,8.59200944 C16.0002,8.81700944 15.8172,9.00000944 15.5922,9.00000944 L13.4072,9.00000944 C13.1822,9.00000944 13.0002,8.81700944 13.0002,8.59200944 L13.0002,7.40800944 C13.0002,7.18300944 13.1822,7.00000944 13.4072,7.00000944" id="Fill-5"></path>
                    <path d="M4.2246,7.00000944 L11.5056,7.00000944 C11.6296,7.00000944 11.7306,7.18300944 11.7306,7.40800944 L11.7306,8.59200944 C11.7306,8.81700944 11.6296,9.00000944 11.5056,9.00000944 L4.2246,9.00000944 C4.1006,9.00000944 3.9996,8.81700944 3.9996,8.59200944 L3.9996,7.40800944 C3.9996,7.18300944 4.1006,7.00000944 4.2246,7.00000944" id="Fill-7"></path>
                    <path d="M19.2442,26.0000094 L24.7552,26.0000094 C24.8902,26.0000094 25.0002,26.1830094 25.0002,26.4070094 L25.0002,27.5920094 C25.0002,27.8170094 24.8902,28.0000094 24.7552,28.0000094 L19.2442,28.0000094 C19.1092,28.0000094 19.0002,27.8170094 19.0002,27.5920094 L19.0002,26.4070094 C19.0002,26.1830094 19.1092,26.0000094 19.2442,26.0000094" id="Fill-9"></path>
                    <path d="M11.2442,26.0000094 L16.7552,26.0000094 C16.8902,26.0000094 17.0002,26.1830094 17.0002,26.4070094 L17.0002,27.5920094 C17.0002,27.8170094 16.8902,28.0000094 16.7552,28.0000094 L11.2442,28.0000094 C11.1092,28.0000094 11.0002,27.8170094 11.0002,27.5920094 L11.0002,26.4070094 C11.0002,26.1830094 11.1092,26.0000094 11.2442,26.0000094" id="Fill-11"></path>
                    <path d="M4.2549,26.0000094 L8.7449,26.0000094 C8.8859,26.0000094 8.9999,26.1830094 8.9999,26.4070094 L8.9999,27.5920094 C8.9999,27.8170094 8.8859,28.0000094 8.7449,28.0000094 L4.2549,28.0000094 C4.1139,28.0000094 3.9999,27.8170094 3.9999,27.5920094 L3.9999,26.4070094 C3.9999,26.1830094 4.1139,26.0000094 4.2549,26.0000094" id="Fill-13"></path>
                    <path d="M23.4072,31.0000094 L25.5922,31.0000094 C25.8172,31.0000094 26.0002,31.1830094 26.0002,31.4070094 L26.0002,32.5920094 C26.0002,32.8170094 25.8172,33.0000094 25.5922,33.0000094 L23.4072,33.0000094 C23.1822,33.0000094 23.0002,32.8170094 23.0002,32.5920094 L23.0002,31.4070094 C23.0002,31.1830094 23.1822,31.0000094 23.4072,31.0000094" id="Fill-15"></path>
                    <path d="M16.2549,31.0000094 L20.7449,31.0000094 C20.8859,31.0000094 20.9999,31.1830094 20.9999,31.4070094 L20.9999,32.5920094 C20.9999,32.8170094 20.8859,33.0000094 20.7449,33.0000094 L16.2549,33.0000094 C16.1139,33.0000094 15.9999,32.8170094 15.9999,32.5920094 L15.9999,31.4070094 C15.9999,31.1830094 16.1139,31.0000094 16.2549,31.0000094" id="Fill-17"></path>
                    <path d="M4.2637,31.0000094 L14.7357,31.0000094 C14.8817,31.0000094 14.9997,31.1830094 14.9997,31.4070094 L14.9997,32.5920094 C14.9997,32.8170094 14.8817,33.0000094 14.7357,33.0000094 L4.2637,33.0000094 C4.1177,33.0000094 3.9997,32.8170094 3.9997,32.5920094 L3.9997,31.4070094 C3.9997,31.1830094 4.1177,31.0000094 4.2637,31.0000094" id="Fill-19"></path>
                    <path d="M6.9996,17.5000094 C6.9996,20.5330094 8.8266,23.2680094 11.6286,24.4290094 C14.4316,25.5900094 17.6576,24.9480094 19.8026,22.8030094 C21.9466,20.6580094 22.5886,17.4320094 21.4286,14.6290094 C20.2676,11.8270094 17.5326,10.0000094 14.4986,10.0000094 C10.3586,10.0050094 7.0046,13.3600094 6.9996,17.5000094 M20.7486,17.5000094 C20.7486,20.0280094 19.2266,22.3070094 16.8916,23.2740094 C14.5556,24.2410094 11.8666,23.7070094 10.0796,21.9190094 C8.2926,20.1320094 7.7576,17.4440094 8.7256,15.1080094 C9.6916,12.7720094 11.9716,11.2500094 14.4986,11.2500094 C17.9486,11.2540094 20.7446,14.0500094 20.7486,17.5000094" id="Fill-21"></path>
                    <path d="M9.36140054e-13,33 C0.002,34.6560094 1.353,35.9980094 3.021,36 L25.979,36 C27.646,35.9980094 28.998,34.6560094 29,33 L29,10.5940094 C29.002,9.79800944 28.684,9.03400944 28.115,8.47300944 L20.468,0.879009436 C19.903,0.314009436 19.134,-0.00199056389 18.332,1.66977543e-13 L3.021,1.66977543e-13 C1.353,0.00200943611 0.002,1.34400944 9.36140054e-13,3 L9.36140054e-13,33 Z M27.7910039,18.6000094 L27.7910039,33.0000094 C27.79,33.9940094 26.979,34.7990094 25.979,34.8000094 L3.021,34.8000094 C2.02,34.7990094 1.209,33.9940094 1.208,33.0000094 L1.208,18.6000094 L1.208,17.4000094 L1.208,3.00000944 C1.209,2.00600944 2.02,1.20100944 3.021,1.20000944 L18.332,1.20000944 C18.465,1.20000944 18.599,1.21500944 18.729,1.24400944 L18.729,7.20000944 C18.73,8.85600944 20.082,10.1980094 21.75,10.2000094 L25.375,10.2000094 L25.375,9.00000944 L21.75,9.00000944 C20.749,8.99900944 19.938,8.19400944 19.937,7.20000944 L19.937,2.04800944 L27.261,9.32100944 C27.602,9.65800944 27.792,10.1160094 27.7910039,10.5940094 L27.7910039,17.4000094 L27.7910039,18.6000094 Z" id="Fill-23"></path>
                </g>
                <g id="Group-29" transform="translate(10.999600, 14.000009)" fill="#5A0C84">
                    <path d="M3.18400677,0.000173917707 C2.86711094,-0.00755524896 2.61747344,0.243307251 2.62517344,0.559007251 L2.77208594,6.58241975 C2.77978594,6.89811975 3.04196511,7.16146558 3.35886094,7.16919475 C3.67456094,7.17689475 3.92539427,6.92606142 3.91769427,6.61036142 L3.77078177,0.586948918 C3.76308177,0.271248918 3.49970677,0.00787391771 3.18400677,0.000173917707" id="Fill-28" transform="translate(3.271433, 3.584684) rotate(-45.000000) translate(-3.271433, -3.584684) "></path>
                    <path d="M3.18400824,0.0001739177 C2.8671124,-0.00755524897 2.6174749,0.243307251 2.6251749,0.559007251 L2.7720874,6.58241975 C2.7797874,6.89811975 3.04196657,7.16146558 3.3588624,7.16919475 C3.6745624,7.17689475 3.92539574,6.92606142 3.91769574,6.61036142 L3.77078324,0.586948918 C3.76308324,0.271248918 3.49970824,0.0078739177 3.18400824,0.0001739177" id="Fill-28-Copy" transform="translate(3.271435, 3.584684) scale(-1, 1) rotate(-45.000000) translate(-3.271435, -3.584684) "></path>
                </g>
            </g>
        </g>
    </g>
</svg>