<?xml version="1.0" encoding="UTF-8"?>
<svg width="27px" height="36px" viewBox="0 0 27 36" version="1.1" xmlns="http://www.w3.org/2000/svg" xmlns:xlink="http://www.w3.org/1999/xlink">
    <!-- Generator: sketchtool 64 (101010) - https://sketch.com -->
    <title>D1EDB4DA-460B-4970-8050-CB7B2299A721</title>
    <desc>Created with sketchtool.</desc>
    <g id="360View-LISTO" stroke="none" stroke-width="1" fill="none" fill-rule="evenodd">
        <g id="360" transform="translate(-1377.000000, -519.000000)" fill="#5A1584">
            <path d="M1380.76161,550.304348 L1390.70898,550.304348 C1391.03207,550.304348 1391.29412,550.654826 1391.29412,551.086957 C1391.29412,551.519087 1391.03207,551.869565 1390.70898,551.869565 L1380.76161,551.869565 C1380.43852,551.869565 1380.17647,551.519087 1380.17647,551.086957 C1380.17647,550.654826 1380.43852,550.304348 1380.76161,550.304348 L1380.76161,550.304348 Z M1392.88235,551.086957 L1392.88235,551.086957 C1392.88235,550.654826 1393.14908,550.304348 1393.47794,550.304348 L1397.05147,550.304348 C1397.38033,550.304348 1397.64706,550.654826 1397.64706,551.086957 C1397.64706,551.519087 1397.38033,551.869565 1397.05147,551.869565 L1393.47794,551.869565 C1393.14908,551.869565 1392.88235,551.519087 1392.88235,551.086957 L1392.88235,551.086957 Z M1380.7789,547.173913 L1397.04462,547.173913 C1397.37727,547.173913 1397.64706,547.524391 1397.64706,547.956522 C1397.64706,548.388652 1397.37727,548.73913 1397.04462,548.73913 L1380.7789,548.73913 C1380.44626,548.73913 1380.17647,548.388652 1380.17647,547.956522 C1380.17647,547.524391 1380.44626,547.173913 1380.7789,547.173913 L1380.7789,547.173913 Z M1380.7789,544.043478 L1397.04462,544.043478 C1397.37727,544.043478 1397.64706,544.393957 1397.64706,544.826087 C1397.64706,545.258217 1397.37727,545.608696 1397.04462,545.608696 L1380.7789,545.608696 C1380.44626,545.608696 1380.17647,545.258217 1380.17647,544.826087 C1380.17647,544.393957 1380.44626,544.043478 1380.7789,544.043478 L1380.7789,544.043478 Z M1380.70588,540.913043 L1382.82353,540.913043 C1383.11585,540.913043 1383.35294,541.263522 1383.35294,541.695652 C1383.35294,542.127783 1383.11585,542.478261 1382.82353,542.478261 L1380.70588,542.478261 C1380.41356,542.478261 1380.17647,542.127783 1380.17647,541.695652 C1380.17647,541.263522 1380.41356,540.913043 1380.70588,540.913043 L1380.70588,540.913043 Z M1384.94118,541.695652 L1384.94118,541.695652 C1384.94118,541.263522 1385.21213,540.913043 1385.54622,540.913043 L1397.04202,540.913043 C1397.3761,540.913043 1397.64706,541.263522 1397.64706,541.695652 C1397.64706,542.127783 1397.3761,542.478261 1397.04202,542.478261 L1385.54622,542.478261 C1385.21213,542.478261 1384.94118,542.127783 1384.94118,541.695652 L1384.94118,541.695652 Z M1380.7789,537.782609 L1397.04462,537.782609 C1397.37727,537.782609 1397.64706,538.133087 1397.64706,538.565217 C1397.64706,538.997348 1397.37727,539.347826 1397.04462,539.347826 L1380.7789,539.347826 C1380.44626,539.347826 1380.17647,538.997348 1380.17647,538.565217 C1380.17647,538.133087 1380.44626,537.782609 1380.7789,537.782609 L1380.7789,537.782609 Z M1380.78151,535.434783 L1392.27731,535.434783 C1392.61139,535.434783 1392.88235,535.785261 1392.88235,536.217391 C1392.88235,536.649652 1392.61139,537 1392.27731,537 L1380.78151,537 C1380.44743,537 1380.17647,536.649652 1380.17647,536.217391 C1380.17647,535.785261 1380.44743,535.434783 1380.78151,535.434783 L1380.78151,535.434783 Z M1394.47059,536.217391 L1394.47059,536.217391 C1394.47059,535.785261 1394.70768,535.434783 1395,535.434783 L1397.11765,535.434783 C1397.40997,535.434783 1397.64706,535.785261 1397.64706,536.217391 C1397.64706,536.649652 1397.40997,537 1397.11765,537 L1395,537 C1394.70768,537 1394.47059,536.649652 1394.47059,536.217391 L1394.47059,536.217391 Z M1380.7789,531.521739 L1397.04462,531.521739 C1397.37727,531.521739 1397.64706,531.872217 1397.64706,532.304348 C1397.64706,532.736478 1397.37727,533.086957 1397.04462,533.086957 L1380.7789,533.086957 C1380.44626,533.086957 1380.17647,532.736478 1380.17647,532.304348 C1380.17647,531.872217 1380.44626,531.521739 1380.7789,531.521739 L1380.7789,531.521739 Z M1380.77206,529.173913 L1391.49265,529.173913 C1391.82151,529.173913 1392.08824,529.524391 1392.08824,529.956522 C1392.08824,530.388652 1391.82151,530.73913 1391.49265,530.73913 L1380.77206,530.73913 C1380.44319,530.73913 1380.17647,530.388652 1380.17647,529.956522 C1380.17647,529.524391 1380.44319,529.173913 1380.77206,529.173913 L1380.77206,529.173913 Z M1381.76471,526.826087 L1381.76471,526.826087 C1381.76471,527.258217 1381.49798,527.608696 1381.16912,527.608696 L1379.97794,527.608696 C1379.64908,527.608696 1379.38235,527.258217 1379.38235,526.826087 C1379.38235,526.393957 1379.64908,526.043478 1379.97794,526.043478 L1381.16912,526.043478 C1381.49798,526.043478 1381.76471,526.393957 1381.76471,526.826087 L1381.76471,526.826087 Z M1391.46429,527.608696 L1383.97689,527.608696 C1383.63237,527.608696 1383.35294,527.258217 1383.35294,526.826087 C1383.35294,526.393957 1383.63237,526.043478 1383.97689,526.043478 L1391.46429,526.043478 C1391.80881,526.043478 1392.08824,526.393957 1392.08824,526.826087 C1392.08824,527.258217 1391.80881,527.608696 1391.46429,527.608696 L1391.46429,527.608696 Z M1395.99271,528.391304 C1395.15237,528.390304 1394.4716,527.719404 1394.47059,526.891249 L1394.47059,526.012341 C1394.47059,525.344191 1395.29038,525.009554 1395.76972,525.482071 L1397.42261,527.110882 C1397.90208,527.583399 1397.56252,528.391304 1396.88441,528.391304 L1395.99271,528.391304 Z M1379.4,555 L1398,555 C1399.1594,554.9986 1400.1261,554.1766 1400.3508,553.0835 C1400.408,552.805 1400.6444,552.6 1400.9287,552.6 L1401.6,552.6 C1402.925,552.5984 1403.9984,551.525 1404,550.2 L1404,546 C1404,545.6687 1403.7313,545.4 1403.4,545.4 C1403.0687,545.4 1402.8,545.6687 1402.8,546 L1402.8,550.2 C1402.7992,550.8625 1402.2625,551.3992 1401.6,551.4 L1401,551.4 C1400.6687,551.4 1400.4,551.1313 1400.4,550.8 L1400.4,528.8487 C1400.4,528.5304 1400.2735,528.2251 1400.0484,528 L1394.9999,522.9515 C1394.7748,522.7265 1394.4695,522.6 1394.1513,522.6 L1381.2,522.6 C1380.8687,522.6 1380.6,522.3313 1380.6,522 L1380.6,521.4 C1380.6008,520.7375 1381.1375,520.2008 1381.8,520.2 L1401.6,520.2 C1402.2625,520.2008 1402.7992,520.7375 1402.8,521.4 L1402.8,543.6 C1402.8,543.9313 1403.0687,544.2 1403.4,544.2 C1403.7313,544.2 1404,543.9313 1404,543.6 L1404,521.4 C1403.9984,520.075 1402.925,519.0016 1401.6,519 L1381.8,519 C1380.475,519.0016 1379.4016,520.075 1379.4,521.4 L1379.4,522.0712 C1379.4,522.3556 1379.195,522.592 1378.9165,522.6492 C1377.8234,522.8739 1377.0014,523.8406 1377,525 L1377,526.2 C1377,526.5313 1377.2687,526.8 1377.6,526.8 C1377.9313,526.8 1378.2,526.5313 1378.2,526.2 L1378.2,525 C1378.2008,524.3375 1378.7375,523.8008 1379.4,523.8 L1393.2,523.8 C1393.5313,523.8 1393.8,524.0687 1393.8,524.4 L1393.8,526.8 C1393.8016,528.125 1394.875,529.1984 1396.2,529.2 L1398.6,529.2 C1398.9313,529.2 1399.2,529.4687 1399.2,529.8 L1399.2,552.6 C1399.1992,553.2625 1398.6625,553.7992 1398,553.8 L1379.4,553.8 C1378.7375,553.7992 1378.2008,553.2625 1378.2,552.6 L1378.2,528.6 C1378.2,528.2687 1377.9313,528 1377.6,528 C1377.2687,528 1377,528.2687 1377,528.6 L1377,552.6 C1377.0016,553.925 1378.075,554.9984 1379.4,555 L1379.4,555 Z" id="Fill-1-Copy"></path>
        </g>
    </g>
</svg>