<?xml version="1.0" encoding="UTF-8"?>
<svg width="31px" height="36px" viewBox="0 0 31 36" version="1.1" xmlns="http://www.w3.org/2000/svg" xmlns:xlink="http://www.w3.org/1999/xlink">
    <!-- Generator: sketchtool 64 (101010) - https://sketch.com -->
    <title>BBA3D37E-1F67-47F4-8463-0B462FA10E89</title>
    <desc>Created with sketchtool.</desc>
    <g id="360View-LISTO" stroke="none" stroke-width="1" fill="none" fill-rule="evenodd">
        <g id="360" transform="translate(-1377.000000, -687.000000)" fill="#5A1584">
            <path d="M1381.04348,716.207333 C1381.04348,715.832548 1381.31888,715.528302 1381.65852,715.528302 L1389.18969,715.528302 C1389.52882,715.528302 1389.80435,715.832548 1389.80435,716.207333 C1389.80435,716.582546 1389.52882,716.886792 1389.18969,716.886792 L1381.65852,716.886792 C1381.31888,716.886792 1381.04348,716.582546 1381.04348,716.207333 L1381.04348,716.207333 Z M1381.71739,711.453115 C1381.71739,711.077863 1381.97432,710.773585 1382.29117,710.773585 L1387.8831,710.773585 C1388.19996,710.773585 1388.45652,711.077863 1388.45652,711.453115 C1388.45652,711.828368 1388.19996,712.132075 1387.8831,712.132075 L1382.29117,712.132075 C1381.97432,712.132075 1381.71739,711.828368 1381.71739,711.453115 L1381.71739,711.453115 Z M1400.81183,712.962121 L1400.81183,712.717868 C1400.81183,712.452457 1400.65334,712.221126 1400.41756,712.14182 L1399.74791,711.91657 C1399.04032,711.678904 1398.56522,710.984277 1398.56522,710.187793 L1398.56522,709.943413 C1398.56522,709.156304 1399.0349,708.485113 1399.68852,708.236173 L1399.68852,707.981024 C1399.68852,707.647583 1399.9401,707.377358 1400.25,707.377358 C1400.56014,707.377358 1400.81183,707.647583 1400.81183,707.981024 L1400.81183,708.236173 C1401.46545,708.485113 1401.93478,709.156304 1401.93478,709.943413 C1401.93478,710.277107 1401.68356,710.547205 1401.37331,710.547205 C1401.06305,710.547205 1400.81183,710.277107 1400.81183,709.943413 C1400.81183,709.610225 1400.5599,709.339494 1400.25,709.339494 C1399.94045,709.339494 1399.68852,709.610225 1399.68852,709.943413 L1399.68852,710.187793 C1399.68852,710.453203 1399.84701,710.684661 1400.08279,710.764347 L1400.75244,710.989091 C1401.45956,711.226756 1401.93478,711.921384 1401.93478,712.717868 L1401.93478,712.962121 C1401.93478,713.831577 1401.36235,714.559776 1400.60091,714.733718 L1400.60091,714.924636 C1400.60091,715.258204 1400.34969,715.528302 1400.03943,715.528302 C1399.72941,715.528302 1399.47807,715.258204 1399.47807,714.924636 L1399.47807,714.571558 C1398.93651,714.269789 1398.56522,713.662069 1398.56522,712.962121 C1398.56522,712.628933 1398.81679,712.358582 1399.12693,712.358582 C1399.43695,712.358582 1399.68852,712.628933 1399.68852,712.962121 C1399.68852,713.295309 1399.94045,713.566167 1400.25,713.566167 C1400.5599,713.566167 1400.81183,713.295309 1400.81183,712.962121 L1400.81183,712.962121 Z M1406.65217,711.452638 C1406.65217,715.198374 1403.62918,718.245283 1399.91285,718.245283 C1396.1969,718.245283 1393.17391,715.198374 1393.17391,711.452638 C1393.17391,707.707415 1396.1969,704.660377 1399.91285,704.660377 C1403.62918,704.660377 1406.65217,707.707415 1406.65217,711.452638 L1406.65217,711.452638 Z M1388.45652,702.622642 L1393.17391,702.622642 L1393.17391,698.54717 L1388.45652,698.54717 L1388.45652,702.622642 Z M1387.1087,707.377358 L1383.00983,707.377358 C1382.66883,707.377358 1382.3913,707.090565 1382.3913,706.738043 L1382.3913,703.301887 L1387.1087,703.301887 L1387.1087,707.377358 Z M1383.00983,698.54717 L1387.1087,698.54717 L1387.1087,702.622642 L1382.3913,702.622642 L1382.3913,699.186691 C1382.3913,698.834069 1382.66883,698.54717 1383.00983,698.54717 L1383.00983,698.54717 Z M1398.3666,693.792453 C1397.73287,693.792453 1397.21739,693.272926 1397.21739,692.634209 L1397.21739,689.037736 L1401.93478,693.792453 L1398.3666,693.792453 Z M1392.35557,711.150121 C1392.35557,715.492265 1395.8644,719.025198 1400.17766,719.025198 C1404.49092,719.025198 1408,715.492265 1408,711.150121 C1408,708.319645 1406.50831,705.833096 1404.27509,704.445176 L1404.27509,694.575774 C1404.27509,694.379765 1404.18155,694.206543 1404.03762,694.09702 C1396.63282,686.642536 1397.11175,687.063255 1396.8584,687.012774 C1396.76999,686.994772 1397.70522,687.001066 1379.38403,687.001066 C1378.06941,687.001066 1377,688.077286 1377,689.400752 L1377,720.600189 C1377,721.923276 1378.06941,723 1379.38403,723 L1401.88218,723 C1403.19643,723 1404.26608,721.923276 1404.26608,720.600189 C1404.26608,720.26885 1403.99898,719.999952 1403.67011,719.999952 C1403.34086,719.999952 1403.07401,720.26885 1403.07401,720.600189 C1403.07401,721.261606 1402.53918,721.799905 1401.88218,721.799905 L1379.38403,721.799905 C1378.7269,721.799905 1378.19195,721.261606 1378.19195,720.600189 L1378.19195,689.400752 C1378.19195,688.739082 1378.7269,688.200657 1379.38403,688.200657 L1396.14563,688.200657 L1396.14563,692.775695 C1396.14563,694.098908 1397.21516,695.175632 1398.52979,695.175632 L1403.08314,695.175632 L1403.08314,703.839023 C1402.11139,703.446503 1401.05574,703.247977 1399.9542,703.27882 L1399.9542,699.000627 C1399.9542,698.008248 1399.15215,697.2008 1398.16652,697.2008 L1383.11782,697.2008 C1382.13195,697.2008 1381.32989,698.008248 1381.32989,699.000627 L1381.32989,706.650364 C1381.32989,707.642869 1382.13195,708.450443 1383.11782,708.450443 L1390.94028,708.450443 C1391.26928,708.450443 1391.53601,708.181923 1391.53601,707.850459 C1391.53601,707.51912 1391.26928,707.250348 1390.94028,707.250348 L1388.25814,707.250348 L1388.25814,703.425606 L1393.6223,703.425606 C1393.95118,703.425606 1394.21803,703.156834 1394.21803,702.825369 L1394.21803,698.400768 L1398.16652,698.400768 C1398.4949,698.400768 1398.76225,698.670044 1398.76225,699.000627 L1398.76225,703.405086 C1395.12237,704.077456 1392.35557,707.294661 1392.35557,711.150121 L1392.35557,711.150121 Z" id="Fill-1"></path>
        </g>
    </g>
</svg>