<?xml version="1.0" encoding="UTF-8"?>
<svg width="40px" height="34px" viewBox="0 0 40 34" version="1.1" xmlns="http://www.w3.org/2000/svg" xmlns:xlink="http://www.w3.org/1999/xlink">
    <!-- Generator: sketchtool 64 (101010) - https://sketch.com -->
    <title>9EA03551-BD10-4444-98F3-B41888C1FDE6</title>
    <desc>Created with sketchtool.</desc>
    <g id="Comunidad-(Marco)LISTO" stroke="none" stroke-width="1" fill="none" fill-rule="evenodd">
        <g id="Comunidad-[home]" transform="translate(-503.000000, -642.000000)" fill="#FFFFFF">
            <g id="Group-7" transform="translate(488.000000, 630.000000)">
                <g id="Group-12" transform="translate(15.000000, 12.000000)">
                    <path d="M19.7801147,28 C21.2368996,28 22.4175824,29.1938491 22.4175824,30.6666667 C22.4175824,32.1392718 21.2368996,33.3333333 19.7801147,33.3333333 C18.32354,33.3333333 17.1428571,32.1392718 17.1428571,30.6666667 C17.1428571,29.1938491 18.32354,28 19.7801147,28" id="Fill-1"></path>
                    <path d="M38.4378558,11.1111111 C38.0194329,11.1111111 37.6022424,10.9450008 37.2945362,10.6167018 C32.7569992,5.77454769 26.6149941,3.10811464 20.0001321,3.10811464 C13.3848592,3.10811464 7.24305955,5.77454769 2.70552259,10.6167018 C2.11722445,11.2444944 1.12837416,11.27902 0.497145052,10.6939246 C-0.134084059,10.1088293 -0.168798579,9.12536249 0.419294146,8.49756991 C5.55457816,3.0180214 12.508369,0 19.9995159,0 C27.4916898,0 34.4452752,3.0180214 39.5803538,8.49756991 C40.1688574,9.12536249 40.1341428,10.108625 39.5029137,10.6939246 C39.2017807,10.9729889 38.8190993,11.1111111 38.4378558,11.1111111" id="Fill-3"></path>
                    <path d="M32.70037,18.2222222 C32.292724,18.2222222 31.885078,18.0628736 31.5751753,17.7446014 C28.3238021,14.4048676 24.1348014,12.56556 19.7803248,12.56556 C15.4243892,12.5657725 11.2358054,14.4048676 7.98547426,17.7443889 C7.368795,18.3779589 6.36510209,18.3819957 5.74342104,17.7533125 C5.1219484,17.1246292 5.11798865,16.1013988 5.73466791,15.4678288 C9.58479721,11.5119472 14.5730426,9.3335458 19.7803248,9.33333333 C24.9863565,9.33333333 29.9743934,11.5117347 33.8255648,15.4676164 C34.4422441,16.1011864 34.4387011,17.1244167 33.8172285,17.7531 C33.507951,18.0660606 33.1040563,18.2222222 32.70037,18.2222222" id="Fill-5"></path>
                    <path d="M12.9923904,24.4444444 C12.5896443,24.4444444 12.1873093,24.2941283 11.881395,23.9940956 C11.273678,23.3976282 11.2782009,22.4347652 11.8916744,21.8438948 C13.9261694,19.8841877 16.8428409,18.6666667 19.502939,18.6666667 L19.5041726,18.6666667 L19.6168346,18.6666667 L19.6180681,18.6666667 C22.2783718,18.6666667 25.1946322,19.8839878 27.2291272,21.8438948 C27.8426006,22.4347652 27.8473292,23.3976282 27.2394066,23.9940956 C26.6316896,24.5907628 25.6411685,24.5949605 25.0279006,24.00409 C23.5795359,22.609068 21.4560214,21.7075708 19.6178625,21.7075708 L19.6172458,21.7075708 L19.503967,21.7075708 L19.5031446,21.7075708 C17.6647802,21.7075708 15.5412657,22.6088681 14.0931065,24.00409 C13.7880145,24.2979262 13.3902025,24.4444444 12.9923904,24.4444444" id="Fill-7"></path>
                </g>
            </g>
        </g>
    </g>
</svg>