<?xml version="1.0" encoding="UTF-8"?>
<svg width="50px" height="33px" viewBox="0 0 50 33" version="1.1" xmlns="http://www.w3.org/2000/svg" xmlns:xlink="http://www.w3.org/1999/xlink">
    <!-- Generator: sketchtool 64 (101010) - https://sketch.com -->
    <title>A764D2D6-1CD7-41C1-83BD-707CDC9365F3</title>
    <desc>Created with sketchtool.</desc>
    <defs>
        <polygon id="path-1" points="0 0.0139006238 35.4466614 0.0139006238 35.4466614 32.1202181 0 32.1202181"></polygon>
    </defs>
    <g id="360View-LISTO" stroke="none" stroke-width="1" fill="none" fill-rule="evenodd">
        <g id="360" transform="translate(-343.000000, -524.000000)">
            <g id="Group-34" transform="translate(325.000000, 496.000000)">
                <g id="Group-12" transform="translate(18.000000, 28.000000)">
                    <g id="Group-14" transform="translate(0.000000, 0.144462)">
                        <path d="M34.429019,26.0899209 C35.5260127,26.0899209 36.4150949,26.9790032 36.4150949,28.0758386 C36.4150949,29.1725158 35.5260127,30.0617563 34.429019,30.0617563 C33.3321835,30.0617563 32.4431013,29.1725158 32.4431013,28.0758386 C32.4431013,26.9790032 33.3321835,26.0899209 34.429019,26.0899209" id="Fill-1" fill="#FFFFFF"></path>
                        <path d="M48.6919304,13.3318984 C48.3696203,13.3318984 48.0482595,13.2032437 47.8112342,12.9489715 C44.315981,9.19865506 39.5848101,7.13346519 34.4893987,7.13346519 C29.3936709,7.13346519 24.6626582,9.19865506 21.1674051,12.9489715 C20.7142405,13.4352057 19.9525316,13.4619462 19.4662975,13.0087816 C18.9800633,12.5556171 18.9533228,11.7939082 19.4063291,11.3076741 C23.3620253,7.06368671 28.7185127,4.72618671 34.4889241,4.72618671 C40.2601266,4.72618671 45.6164557,7.06368671 49.5719937,11.3076741 C50.0253165,11.7939082 49.9985759,12.5554589 49.5123418,13.0087816 C49.2803797,13.2249209 48.9856013,13.3318984 48.6919304,13.3318984" id="Fill-3" fill="#FFFFFF"></path>
                        <path d="M44.2983228,18.3295728 C43.9888291,18.3295728 43.6793354,18.2109019 43.4440506,17.9738766 C40.975538,15.486693 37.7951582,14.1169146 34.4891456,14.1169146 C31.1820253,14.1170728 28.001962,15.486693 25.5342405,17.9737184 C25.0660443,18.4455538 24.304019,18.4485601 23.8320253,17.9803639 C23.3601899,17.5121677 23.3571835,16.7501424 23.8253797,16.278307 C26.748481,13.3322627 30.5356646,11.7099525 34.4891456,11.7097943 C38.4416772,11.7097943 42.2287025,13.3321044 45.1525949,16.2781487 C45.6207911,16.7499842 45.6181013,17.5120095 45.1462658,17.9802057 C44.9114557,18.2132753 44.6048101,18.3295728 44.2983228,18.3295728" id="Fill-5" fill="#FFFFFF"></path>
                        <path d="M29.3785443,23.3216297 C29.0685759,23.3216297 28.7589241,23.2026424 28.523481,22.9651424 C28.0557595,22.4929905 28.0592405,21.730807 28.5313924,21.2630854 C30.0972152,19.7118196 32.3419937,18.7480538 34.3893038,18.7480538 L34.3902532,18.7480538 L34.476962,18.7480538 L34.4779114,18.7480538 C36.5253797,18.7480538 38.7698418,19.7116614 40.3356646,21.2630854 C40.8078165,21.730807 40.8114557,22.4929905 40.3435759,22.9651424 C39.8758544,23.4374525 39.1135127,23.4407753 38.641519,22.9730538 C37.5268038,21.8687816 35.8924684,21.1551741 34.4777532,21.1551741 L34.4772785,21.1551741 L34.3900949,21.1551741 L34.389462,21.1551741 C32.9745886,21.1551741 31.3402532,21.8686234 30.2256962,22.9730538 C29.9908861,23.2056487 29.6847152,23.3216297 29.3785443,23.3216297" id="Fill-7" fill="#FFFFFF"></path>
                        <g id="Group-11" transform="translate(-0.000000, -0.000000)">
                            <mask id="mask-2" fill="white">
                                <use xlink:href="#path-1"></use>
                            </mask>
                            <g id="Clip-10"></g>
                            <path d="M30.3376424,30.0609177 C28.1344778,29.5901899 25.9303639,29.1240506 23.72625,28.6591772 C22.2050475,28.3382911 20.681788,28.027057 19.1628006,27.6957278 C19.0313133,27.6670886 18.8267247,27.5223101 18.8235601,27.4259494 C18.7966614,26.5982595 18.8080538,25.7693038 18.8080538,24.8797468 L19.3778323,24.8797468 C22.122769,24.8797468 24.8677057,24.8683544 27.6124842,24.8704114 L25.4870095,22.8091772 C17.9188133,22.8091772 10.3507753,22.8091772 2.78257911,22.809019 C2.11469937,22.809019 2.07419304,22.7670886 2.07387658,22.0856013 C2.07371835,21.5218354 2.07387658,20.9580696 2.07387658,20.3648734 L22.9662816,20.3648734 L20.7607437,18.2261076 L2.07387658,18.2261076 L2.07387658,17.7745253 C2.07387658,12.7773734 2.07371835,7.78006329 2.07403481,2.78291139 C2.07403481,2.1375 2.12466772,2.08718354 2.7734019,2.08718354 C12.7545728,2.08702532 22.7357437,2.08702532 32.7169146,2.08718354 C33.3088449,2.08718354 33.3756171,2.15316456 33.3757753,2.74462025 L33.3757753,3.15775316 C33.867231,3.12848101 34.3631171,3.11265823 34.86375,3.11265823 C35.0586867,3.11265823 35.2528323,3.11550633 35.4466614,3.11993671 C35.4466614,2.95174051 35.4466614,2.78338608 35.4466614,2.61503165 C35.4466614,1.02594937 34.4382753,0.0164556962 32.8523576,0.0161392405 C22.7795728,0.0143987342 12.7069462,0.0139006238 2.63431962,0.0139006238 C1.00061709,0.0139006238 0.00330696203,1.01693038 0.00283227848,2.65806962 C0.00204113924,7.08797468 0.00251582278,11.5178797 0.00267405063,15.9477848 C0.00267405063,18.1231013 -0.00571202532,20.2985759 0.00678797468,22.4738924 C0.0142246835,23.7843354 1.00773734,24.8052215 2.31406646,24.8719937 C2.66912975,24.8900316 3.02577532,24.8811709 3.38178797,24.8811709 C7.69286392,24.8811709 12.0040981,24.8841772 16.3151741,24.8723101 C16.6578956,24.871519 16.7371677,24.9884494 16.7267247,25.3041139 C16.7058386,25.9362342 16.7023576,26.5702532 16.7279905,27.202057 C16.7412816,27.5273734 16.6417563,27.6531646 16.3143829,27.7218354 C12.6395411,28.4927215 8.96818038,29.2808544 5.29634494,30.0655063 C4.65583861,30.2025316 4.26343354,30.7238924 4.37751582,31.2776899 C4.50568038,31.9003165 5.06058544,32.2297468 5.7319462,32.0873418 C9.54697785,31.2780063 13.3609019,30.4634494 17.1795728,29.6718354 C17.5517247,29.5946203 17.9670728,29.5941456 18.3395411,29.6704114 C22.1987184,30.4613924 26.053307,31.2746835 29.9088449,32.0832278 C30.5753006,32.2231013 31.1324209,31.9172468 31.2635918,31.3327532 C31.4017247,30.715981 31.0414399,30.2112342 30.3376424,30.0609177" id="Fill-9" fill="#FFFFFF" mask="url(#mask-2)"></path>
                        </g>
                    </g>
                </g>
            </g>
        </g>
    </g>
</svg>