<?xml version="1.0" encoding="UTF-8"?>
<svg width="29px" height="29px" viewBox="0 0 29 29" version="1.1" xmlns="http://www.w3.org/2000/svg" xmlns:xlink="http://www.w3.org/1999/xlink">
    <!-- Generator: sketchtool 64 (101010) - https://sketch.com -->
    <title>4903AC0E-B103-4A85-B7FF-6B1C0C427795</title>
    <desc>Created with sketchtool.</desc>
    <defs>
        <polygon id="path-1" points="0 0 29 0 29 29 0 29"></polygon>
    </defs>
    <g id="360View-LISTO" stroke="none" stroke-width="1" fill="none" fill-rule="evenodd">
        <g id="360" transform="translate(-1377.000000, -438.000000)">
            <g id="Group-5" transform="translate(1377.000000, 438.000000)">
                <mask id="mask-2" fill="white">
                    <use xlink:href="#path-1"></use>
                </mask>
                <g id="Clip-2"></g>
                <path d="M0.999998706,17.027027 L6.99999871,17.027027 L6.99999871,11.1891892 L0.999998706,11.1891892 L0.999998706,17.027027 Z M25.999966,7.52174999 L25.258217,5.83783783 L26.7417151,5.83783783 L25.999966,7.52174999 Z M0.5,18 L7.5,18 C7.77611485,18 7.99992706,17.7823581 7.99998956,17.5137567 L7.99998956,17.5135135 L7.99998956,10.7027027 C8.00005206,10.4341013 7.77630235,10.216277 7.50024021,10.2162162 L7.5,10.2162162 L4.5,10.2162162 L4.5,5.35135135 C4.50274413,2.93436486 6.5158665,0.975709459 8.99998825,0.972972972 L20.9999726,0.972972972 C23.2902196,0.976074324 25.2135921,2.65056081 25.4704667,4.86486486 L24.499968,4.86486486 C24.2239059,4.86480405 24.0000311,5.08256756 24.0000311,5.35122973 C24.0000311,5.41714864 24.0137186,5.48245946 24.0404686,5.54302702 L25.5404666,8.94843243 C25.6492165,9.19532432 25.9430911,9.30970945 26.1968408,9.20389864 C26.3148406,9.1547027 26.408903,9.06324324 26.4594029,8.94843243 L27.959401,5.54302702 C28.0682133,5.29613513 27.950776,5.01014189 27.6970263,4.90427027 C27.6347764,4.87824324 27.5677765,4.86486486 27.4999641,4.86486486 L26.4745904,4.86486486 C26.2136533,2.11153378 23.8417814,0.00383108108 20.9999726,0 L8.99998825,0 C5.96380472,0.00334459459 3.50343293,2.39728378 3.5,5.35135135 L3.5,10.2162162 L0.5,10.2162162 C0.22393722,10.2161554 0,10.4338581 0,10.7024595 L0,10.7027027 L0,17.5135135 C0,17.7821149 0.223687221,18 0.49974936,18 L0.5,18 Z" id="Fill-1" fill="#5A1584" mask="url(#mask-2)"></path>
                <path d="M25.0697956,16.8205128 C23.4420781,16.8205128 22.122478,15.511827 22.122478,13.8974362 C22.122478,12.2830454 23.4420781,10.9743597 25.0697956,10.9743597 C26.6975746,10.9743597 28.0171133,12.2830454 28.0171133,13.8974362 C28.015394,15.5110963 26.6968378,16.8187467 25.0697956,16.8205128 L25.0697956,16.8205128 Z M2.96491336,20.4931757 L3.69357625,22.1794864 L2.23625048,22.1794864 L2.96491336,20.4931757 Z M25.0697956,10.0000004 C22.900447,9.9990265 21.1410212,11.7423981 21.1400388,13.8939042 C21.1391177,15.8584552 22.6132064,17.5162659 24.578576,17.7610126 L24.578576,22.6666658 C24.5751989,25.625002 22.15803,28.0222901 19.1751604,28.0256394 L8.85954863,28.0256394 C6.0676406,28.0218029 3.7374176,25.9110981 3.48100096,23.1538452 L4.43857218,23.1538452 C4.70984821,23.1538452 4.92979179,22.9357715 4.92979179,22.6667876 C4.92979179,22.6007139 4.91628325,22.5354319 4.8900644,22.4747171 L3.41640558,19.0644612 C3.30950392,18.8172176 3.02078959,18.7026696 2.77155705,18.8086311 C2.65562922,18.8578971 2.56321853,18.9494868 2.51354395,19.0644612 L1.03988513,22.4747171 C0.932983464,22.7219607 1.04835867,23.0083613 1.29771402,23.1144446 C1.35887086,23.1404478 1.42469429,23.1538452 1.49125455,23.1538452 L2.49856175,23.1538452 C2.75706607,26.4496749 5.526378,28.9948829 8.85954863,29.0000004 L19.1751604,29.0000004 C22.7003365,28.99604 25.5570855,26.162848 25.5610152,22.6666658 L25.5610152,17.7610126 C27.7135395,17.4929422 29.2392676,15.545077 28.968974,13.4102568 C28.7221362,11.4611128 27.0506387,9.99908739 25.0697956,10.0000004 L25.0697956,10.0000004 Z" id="Fill-3" fill="#5A1584" mask="url(#mask-2)"></path>
                <path d="M12.0000216,14.6908958 L10.6182335,13.9999825 L12.0000216,13.3091316 L12.0000216,14.6908958 Z M17.9999159,13.3091316 L19.381704,13.9999825 L17.9999159,14.6908958 L17.9999159,13.3091316 Z M17.2372418,15.9252278 C17.3846142,16.0163496 17.5686735,16.0246618 17.7236083,15.947227 L20.7235554,14.4472793 C20.970551,14.3237212 21.0706118,14.0232941 20.9470515,13.7763028 C20.8986773,13.6795561 20.8202412,13.6011214 20.7235554,13.5527481 L17.7236083,12.0528004 C17.4764251,11.9293672 17.1760554,12.0297387 17.0526826,12.2768551 C17.0180582,12.3461652 17,12.4226 16.9999335,12.5000348 L16.9999335,13.5 L13,13.5 L13,12.5000348 C12.999879,12.2237944 12.7758204,12 12.4995753,12.0001147 C12.4221392,12.0001772 12.345703,12.0181766 12.2763917,12.0528004 L9.2764446,13.5527481 C9.02944896,13.6763063 8.92938822,13.9767333 9.05294854,14.2237247 C9.10132269,14.3204713 9.17975881,14.398906 9.2764446,14.4472793 L12.2763917,15.947227 C12.5235749,16.0705977 12.8239446,15.9702887 12.9473174,15.7231723 C12.9819418,15.6538622 13,15.5774274 13,15.4999301 L13,14.499965 L16.9999335,14.499965 L16.9999335,15.4999301 C17,15.6732366 17.0898069,15.8341685 17.2372418,15.9252278 L17.2372418,15.9252278 Z" id="Fill-4" fill="#5A1584" mask="url(#mask-2)"></path>
            </g>
        </g>
    </g>
</svg>