<?xml version="1.0" encoding="UTF-8"?>
<svg width="32px" height="36px" viewBox="0 0 32 36" version="1.1" xmlns="http://www.w3.org/2000/svg" xmlns:xlink="http://www.w3.org/1999/xlink">
    <!-- Generator: sketchtool 64 (101010) - https://sketch.com -->
    <title>5FA1CE37-1BCD-40ED-9F86-247CC2655C01</title>
    <desc>Created with sketchtool.</desc>
    <defs>
        <polygon id="path-1" points="0 0.0863261706 31.9999289 0.0863261706 31.9999289 35.0526316 0 35.0526316"></polygon>
    </defs>
    <g id="360View-LISTO" stroke="none" stroke-width="1" fill="none" fill-rule="evenodd">
        <g id="360" transform="translate(-1377.000000, -604.000000)">
            <g id="Group-30" transform="translate(1377.000000, 604.000000)">
                <g id="Group-3">
                    <mask id="mask-2" fill="white">
                        <use xlink:href="#path-1"></use>
                    </mask>
                    <g id="Clip-2"></g>
                    <path d="M1.14280296,3.00016682 C1.14398815,2.03488987 1.91068444,1.25297445 2.85717333,1.25188661 L19.4285511,1.25188661 L19.4285511,5.3312877 C19.4304474,6.93996174 20.7084326,8.24319441 22.2857956,8.24512835 L26.2857956,8.24512835 L26.2857956,19.0749411 C22.0525511,17.7868173 17.5970844,20.2424354 16.333677,24.5593483 C15.2890548,28.130728 16.7500326,31.9699581 19.8835437,33.8870953 L2.85717333,33.8870953 C1.91068444,33.8858866 1.14398815,33.1040921 1.14280296,32.1388151 L1.14280296,3.00016682 Z M20.5714252,2.07598606 L25.4777363,7.07956791 L22.2857956,7.07956791 C21.3391881,7.07848007 20.5724919,6.29656465 20.5714252,5.3312877 L20.5714252,2.07598606 Z M30.8571733,26.8938536 C30.8571733,30.756291 27.7871881,33.8870953 23.9999289,33.8870953 C20.2126696,33.8870953 17.142803,30.756291 17.142803,26.8938536 C17.142803,23.0314162 20.2126696,19.9006118 23.9999289,19.9006118 C27.7852919,19.9050841 30.8526696,23.0333501 30.8571733,26.8938536 L30.8571733,26.8938536 Z M-7.11111111e-05,32.1388151 C0.0019437037,33.7473683 1.27981037,35.0507218 2.85717333,35.0526558 L23.9999289,35.0526558 C28.4178252,35.0530184 31.9995733,31.4007759 31.9999289,26.895304 C32.0002844,23.743589 30.2206104,20.8738663 27.4285511,19.523373 L27.4285511,7.66240857 C27.4285511,7.50793525 27.3682252,7.35962635 27.2610844,7.25035884 L20.404077,0.257117096 C20.2968178,0.147849583 20.1515141,0.0863261706 19.9999289,0.0863261706 L2.85717333,0.0863261706 C1.27981037,0.0882601089 0.0019437037,1.39149278 -7.11111111e-05,3.00016682 L-7.11111111e-05,32.1388151 Z" id="Fill-1" fill="#5A1584" mask="url(#mask-2)"></path>
                </g>
                <path d="M9.41176471,11.3683228 C9.41176471,11.8913747 9.67124011,12.3157895 9.99101953,12.3157895 L23.8914535,12.3157895 C24.2111128,12.3157895 24.4705882,11.8913747 24.4705882,11.3683228 C24.4705882,10.8454674 24.2111128,10.4210526 23.8914535,10.4210526 L9.99101953,10.4210526 C9.67124011,10.4210526 9.41176471,10.8454674 9.41176471,11.3683228" id="Fill-4" fill="#5A1584"></path>
                <path d="M4.36358555,15.1578947 L16.3422968,15.1578947 C16.6728545,15.1578947 16.9411765,14.73348 16.9411765,14.2106246 C16.9411765,13.6877691 16.6728545,13.2631579 16.3422968,13.2631579 L4.36358555,13.2631579 C4.03302782,13.2631579 3.76470588,13.6877691 3.76470588,14.2106246 C3.76470588,14.73348 4.03302782,15.1578947 4.36358555,15.1578947" id="Fill-6" fill="#5A1584"></path>
                <path d="M18.2588821,17.0526316 L13.741235,17.0526316 C13.4295722,17.0526316 13.1764706,17.4770463 13.1764706,17.9999018 C13.1764706,18.5227572 13.4295722,18.9473684 13.741235,18.9473684 L18.2588821,18.9473684 C18.5705449,18.9473684 18.8235294,18.5227572 18.8235294,17.9999018 C18.8235294,17.4770463 18.5705449,17.0526316 18.2588821,17.0526316" id="Fill-8" fill="#5A1584"></path>
                <path d="M4.32936491,22.7368421 L14.4941645,22.7368421 C14.8058338,22.7368421 15.0588235,22.3124273 15.0588235,21.7895719 C15.0588235,21.26652 14.8058338,20.8421053 14.4941645,20.8421053 L4.32936491,20.8421053 C4.01769562,20.8421053 3.76470588,21.26652 3.76470588,21.7895719 C3.76470588,22.3124273 4.01769562,22.7368421 4.32936491,22.7368421" id="Fill-10" fill="#5A1584"></path>
                <path d="M4.35289542,12.3157895 L7.88239869,12.3157895 C8.2070559,12.3157895 8.47058824,11.8913747 8.47058824,11.3683228 C8.47058824,10.8454674 8.2070559,10.4210526 7.88239869,10.4210526 L4.35289542,10.4210526 C4.02823822,10.4210526 3.76470588,10.8454674 3.76470588,11.3683228 C3.76470588,11.8913747 4.02823822,12.3157895 4.35289542,12.3157895" id="Fill-12" fill="#5A1584"></path>
                <path d="M23.8431915,13.2631579 L17.5687034,13.2631579 C17.2222752,13.2631579 16.9411765,13.6875727 16.9411765,14.2104281 C16.9411765,14.73348 17.2222752,15.1578947 17.5687034,15.1578947 L23.8431915,15.1578947 C24.1894895,15.1578947 24.4705882,14.73348 24.4705882,14.2104281 C24.4705882,13.6875727 24.1894895,13.2631579 23.8431915,13.2631579" id="Fill-14" fill="#5A1584"></path>
                <path d="M4.3024732,18.9473684 L10.7562388,18.9473684 C11.0531765,18.9473684 11.2941176,18.5229537 11.2941176,18.0000982 C11.2941176,17.4770463 11.0531765,17.0526316 10.7562388,17.0526316 L4.3024732,17.0526316 C4.00564706,17.0526316 3.76470588,17.4770463 3.76470588,18.0000982 C3.76470588,18.5229537 4.00564706,18.9473684 4.3024732,18.9473684" id="Fill-16" fill="#5A1584"></path>
                <path d="M12.5489328,27.4736842 L10.0391723,27.4736842 C9.6928683,27.4736842 9.41176471,27.898099 9.41176471,28.4209544 C9.41176471,28.9440063 9.6928683,29.3684211 10.0391723,29.3684211 L12.5489328,29.3684211 C12.895367,29.3684211 13.1764706,28.9440063 13.1764706,28.4209544 C13.1764706,27.898099 12.895367,27.4736842 12.5489328,27.4736842" id="Fill-18" fill="#5A1584"></path>
                <path d="M4.32936491,29.3684211 L8.84698855,29.3684211 C9.15877497,29.3684211 9.41176471,28.9440063 9.41176471,28.4211509 C9.41176471,27.898099 9.15877497,27.4736842 8.84698855,27.4736842 L4.32936491,27.4736842 C4.01769562,27.4736842 3.76470588,27.898099 3.76470588,28.4211509 C3.76470588,28.9440063 4.01769562,29.3684211 4.32936491,29.3684211" id="Fill-20" fill="#5A1584"></path>
                <path d="M4.35289542,25.5789474 L7.88239869,25.5789474 C8.2070559,25.5789474 8.47058824,25.1545326 8.47058824,24.6314807 C8.47058824,24.1086253 8.2070559,23.6842105 7.88239869,23.6842105 L4.35289542,23.6842105 C4.02823822,23.6842105 3.76470588,24.1086253 3.76470588,24.6314807 C3.76470588,25.1545326 4.02823822,25.5789474 4.35289542,25.5789474" id="Fill-22" fill="#5A1584"></path>
                <path d="M4.3024732,8.52631579 L10.7562388,8.52631579 C11.0531765,8.52631579 11.2941176,8.10190102 11.2941176,7.57904561 C11.2941176,7.05599371 11.0531765,6.63157895 10.7562388,6.63157895 L4.3024732,6.63157895 C4.00564706,6.63157895 3.76470588,7.05599371 3.76470588,7.57904561 C3.76470588,8.10190102 4.00564706,8.52631579 4.3024732,8.52631579" id="Fill-24" fill="#5A1584"></path>
                <path d="M13.5293508,23.6842105 L10.000061,23.6842105 C9.67529021,23.6842105 9.41176471,24.1086253 9.41176471,24.6314807 C9.41176471,25.1545326 9.67529021,25.5789474 10.000061,25.5789474 L13.5293508,25.5789474 C13.8541216,25.5789474 14.1176471,25.1545326 14.1176471,24.6314807 C14.1176471,24.1086253 13.8541216,23.6842105 13.5293508,23.6842105" id="Fill-26" fill="#5A1584"></path>
                <path d="M20.8994747,22.8740802 C20.6711367,23.0834657 20.6404611,23.456921 20.8305382,23.707938 C20.8305382,23.707938 22.8697408,26.4058795 23.517498,27.2581584 C23.5829764,27.3437547 23.6893929,27.443965 23.8760121,27.470614 C23.8949752,27.4728246 23.9138267,27.4736842 23.9326783,27.4736842 L27.6974114,27.4736842 C27.9943512,27.4736842 28.2352941,27.2084216 28.2352941,26.8815101 C28.2352941,26.5547213 27.9943512,26.2894587 27.6974114,26.2894587 L24.1845529,26.2894587 L21.6567717,22.9499748 C21.4666945,22.6985893 21.1278127,22.6648175 20.8994747,22.8740802" id="Fill-28" fill="#5A1584"></path>
            </g>
        </g>
    </g>
</svg>