<?xml version="1.0" encoding="UTF-8"?>
<svg width="29px" height="36px" viewBox="0 0 29 36" version="1.1" xmlns="http://www.w3.org/2000/svg" xmlns:xlink="http://www.w3.org/1999/xlink">
    <!-- Generator: sketchtool 64 (101010) - https://sketch.com -->
    <title>414B4E7C-6032-4ED4-A74A-BE90250A2717</title>
    <desc>Created with sketchtool.</desc>
    <defs>
        <polygon id="path-1" points="0 0 29 0 29 36 0 36"></polygon>
    </defs>
    <g id="360View-LISTO" stroke="none" stroke-width="1" fill="none" fill-rule="evenodd">
        <g id="360" transform="translate(-1377.000000, -264.000000)">
            <g id="Group-30" transform="translate(1377.000000, 264.000000)">
                <path d="M12.2549,3 L16.7449,3 C16.8859,3 16.9999,3.183 16.9999,3.408 L16.9999,4.592 C16.9999,4.817 16.8859,5 16.7449,5 L12.2549,5 C12.1139,5 11.9999,4.817 11.9999,4.592 L11.9999,3.408 C11.9999,3.183 12.1139,3 12.2549,3" id="Fill-1" fill="#5A1584"></path>
                <path d="M7.4077,3 L9.5927,3 C9.8177,3 9.9997,3.183 9.9997,3.408 L9.9997,4.592 C9.9997,4.817 9.8177,5 9.5927,5 L7.4077,5 C7.1827,5 6.9997,4.817 6.9997,4.592 L6.9997,3.408 C6.9997,3.183 7.1827,3 7.4077,3" id="Fill-3" fill="#5A1584"></path>
                <path d="M13.4077,7 L15.5927,7 C15.8177,7 15.9997,7.183 15.9997,7.408 L15.9997,8.592 C15.9997,8.817 15.8177,9 15.5927,9 L13.4077,9 C13.1827,9 12.9997,8.817 12.9997,8.592 L12.9997,7.408 C12.9997,7.183 13.1827,7 13.4077,7" id="Fill-5" fill="#5A1584"></path>
                <path d="M4.2251,7 L11.5061,7 C11.6301,7 11.7311,7.183 11.7311,7.408 L11.7311,8.592 C11.7311,8.817 11.6301,9 11.5061,9 L4.2251,9 C4.1011,9 4.0001,8.817 4.0001,8.592 L4.0001,7.408 C4.0001,7.183 4.1011,7 4.2251,7" id="Fill-7" fill="#5A1584"></path>
                <path d="M19.2451,26 L24.7561,26 C24.8911,26 25.0001,26.183 25.0001,26.407 L25.0001,27.592 C25.0001,27.817 24.8911,28 24.7561,28 L19.2451,28 C19.1091,28 19.0001,27.817 19.0001,27.592 L19.0001,26.407 C19.0001,26.183 19.1091,26 19.2451,26" id="Fill-9" fill="#5A1584"></path>
                <path d="M11.2446,26 L16.7556,26 C16.8906,26 16.9996,26.183 16.9996,26.407 L16.9996,27.592 C16.9996,27.817 16.8906,28 16.7556,28 L11.2446,28 C11.1096,28 10.9996,27.817 10.9996,27.592 L10.9996,26.407 C10.9996,26.183 11.1096,26 11.2446,26" id="Fill-11" fill="#5A1584"></path>
                <path d="M4.2549,26 L8.7449,26 C8.8859,26 8.9999,26.183 8.9999,26.407 L8.9999,27.592 C8.9999,27.817 8.8859,28 8.7449,28 L4.2549,28 C4.1139,28 3.9999,27.817 3.9999,27.592 L3.9999,26.407 C3.9999,26.183 4.1139,26 4.2549,26" id="Fill-13" fill="#5A1584"></path>
                <path d="M23.4082,31 L25.5932,31 C25.8172,31 26.0002,31.183 26.0002,31.407 L26.0002,32.592 C26.0002,32.817 25.8172,33 25.5932,33 L23.4082,33 C23.1822,33 23.0002,32.817 23.0002,32.592 L23.0002,31.407 C23.0002,31.183 23.1822,31 23.4082,31" id="Fill-15" fill="#5A1584"></path>
                <path d="M16.2549,31 L20.7449,31 C20.8859,31 20.9999,31.183 20.9999,31.407 L20.9999,32.592 C20.9999,32.817 20.8859,33 20.7449,33 L16.2549,33 C16.1139,33 15.9999,32.817 15.9999,32.592 L15.9999,31.407 C15.9999,31.183 16.1139,31 16.2549,31" id="Fill-17" fill="#5A1584"></path>
                <path d="M4.2637,31 L14.7367,31 C14.8817,31 14.9997,31.183 14.9997,31.407 L14.9997,32.592 C14.9997,32.817 14.8817,33 14.7367,33 L4.2637,33 C4.1177,33 3.9997,32.817 3.9997,32.592 L3.9997,31.407 C3.9997,31.183 4.1177,31 4.2637,31" id="Fill-19" fill="#5A1584"></path>
                <path d="M7,17.5 C7,20.533 8.827,23.268 11.629,24.429 C14.432,25.59 17.658,24.948 19.803,22.803 C21.948,20.658 22.59,17.432 21.429,14.629 C20.268,11.827 17.533,10 14.5,10 C10.36,10.005 7.005,13.36 7,17.5 M20.75,17.5 C20.75,20.028 19.228,22.307 16.892,23.274 C14.556,24.241 11.868,23.707 10.081,21.919 C8.293,20.132 7.758,17.444 8.726,15.108 C9.693,12.772 11.972,11.25 14.5,11.25 C17.95,11.254 20.746,14.05 20.75,17.5" id="Fill-21" fill="#5A1584"></path>
                <g id="Group-25">
                    <mask id="mask-2" fill="white">
                        <use xlink:href="#path-1"></use>
                    </mask>
                    <g id="Clip-24"></g>
                    <path d="M0,32.9999906 C0.002,34.656 1.353,35.998 3.021,35.9999906 L25.979,35.9999906 C27.646,35.998 28.998,34.656 29,32.9999906 L29,10.594 C29.002,9.798 28.684,9.034 28.115,8.473 L20.469,0.879 C19.903,0.314 19.134,-0.002 18.332,-9.43610906e-06 L3.021,-9.43610906e-06 C1.353,0.002 0.002,1.344 0,2.99999056 L0,32.9999906 Z M27.7920039,18.6 L27.7920039,33 C27.79,33.994 26.979,34.799 25.979,34.8 L3.021,34.8 C2.02,34.799 1.209,33.994 1.208,33 L1.208,18.6 L1.208,17.4 L1.208,3 C1.209,2.006 2.02,1.201 3.021,1.2 L18.332,1.2 C18.466,1.2 18.599,1.215 18.729,1.244 L18.729,7.2 C18.731,8.856 20.082,10.198 21.75,10.2 L25.375,10.2 L25.375,9 L21.75,9 C20.749,8.999 19.938,8.194 19.937,7.2 L19.937,2.048 L27.261,9.321 C27.602,9.658 27.793,10.116 27.7920039,10.594 L27.7920039,17.4 L27.7920039,18.6 Z" id="Fill-23" fill="#5A1584" mask="url(#mask-2)"></path>
                </g>
                <path d="M13.2393,14.5024 C12.9753,14.5024 12.7603,14.7174 12.7603,14.9814 L12.7603,20.0184 C12.7603,20.2824 12.9753,20.4974 13.2393,20.4974 C13.5033,20.4974 13.7183,20.2824 13.7183,20.0184 L13.7183,14.9814 C13.7183,14.7174 13.5033,14.5024 13.2393,14.5024" id="Fill-26" fill="#5A0C84"></path>
                <path d="M15.7608,14.5024 C15.4958,14.5024 15.2818,14.7174 15.2818,14.9814 L15.2818,20.0184 C15.2818,20.2824 15.4958,20.4974 15.7608,20.4974 C16.0248,20.4974 16.2398,20.2824 16.2398,20.0184 L16.2398,14.9814 C16.2398,14.7174 16.0248,14.5024 15.7608,14.5024" id="Fill-28" fill="#5A0C84"></path>
            </g>
        </g>
    </g>
</svg>