<?xml version="1.0" encoding="UTF-8"?>
<svg width="29px" height="36px" viewBox="0 0 29 36" version="1.1" xmlns="http://www.w3.org/2000/svg" xmlns:xlink="http://www.w3.org/1999/xlink">
    <!-- Generator: sketchtool 64 (101010) - https://sketch.com -->
    <title>FDB65DDA-6A8F-4E40-A29A-8A22FECF1E76</title>
    <desc>Created with sketchtool.</desc>
    <defs>
        <polygon id="path-1" points="0 7.54768346e-06 28.9999903 7.54768346e-06 28.9999903 36 0 36"></polygon>
    </defs>
    <g id="360View-LISTO" stroke="none" stroke-width="1" fill="none" fill-rule="evenodd">
        <g id="360" transform="translate(-1377.000000, -180.000000)">
            <g id="Group-30" transform="translate(1377.000000, 180.000000)">
                <path d="M12.2548958,3 L16.7452083,3 C16.8859375,3 17,3.1825 17,3.40766667 L17,4.59216667 C17,4.81733333 16.8859375,5 16.7452083,5 L12.2548958,5 C12.1141667,5 12,4.81733333 12,4.59216667 L12,3.40766667 C12,3.1825 12.1141667,3 12.2548958,3" id="Fill-1" fill="#5A1584"></path>
                <path d="M7.40783333,3 L9.59233333,3 C9.8175,3 10,3.1825 10,3.40766667 L10,4.59216667 C10,4.81733333 9.8175,5 9.59233333,5 L7.40783333,5 C7.18266667,5 7,4.81733333 7,4.59216667 L7,3.40766667 C7,3.1825 7.18266667,3 7.40783333,3" id="Fill-3" fill="#5A1584"></path>
                <path d="M13.4078333,7 L15.5923333,7 C15.8175,7 16,7.1825 16,7.40766667 L16,8.59216667 C16,8.81733333 15.8175,9 15.5923333,9 L13.4078333,9 C13.1826667,9 13,8.81733333 13,8.59216667 L13,7.40766667 C13,7.1825 13.1826667,7 13.4078333,7" id="Fill-5" fill="#5A1584"></path>
                <path d="M4.26217857,7 L12.7379286,7 C12.8826786,7 13,7.1825 13,7.40766667 L13,8.59216667 C13,8.81733333 12.8826786,9 12.7379286,9 L4.26217857,9 C4.11742857,9 4,8.81733333 4,8.59216667 L4,7.40766667 C4,7.1825 4.11742857,7 4.26217857,7" id="Fill-7" fill="#5A1584"></path>
                <path d="M19.2447,26 L24.7554,26 C24.8905,26 25,26.1825 25,26.4076667 L25,27.5921667 C25,27.8173333 24.8905,28 24.7554,28 L19.2447,28 C19.1096,28 19,27.8173333 19,27.5921667 L19,26.4076667 C19,26.1825 19.1096,26 19.2447,26" id="Fill-9" fill="#5A1584"></path>
                <path d="M11.2447,26 L16.7554,26 C16.8905,26 17,26.1825 17,26.4076667 L17,27.5921667 C17,27.8173333 16.8905,28 16.7554,28 L11.2447,28 C11.1096,28 11,27.8173333 11,27.5921667 L11,26.4076667 C11,26.1825 11.1096,26 11.2447,26" id="Fill-11" fill="#5A1584"></path>
                <path d="M4.25489583,26 L8.74520833,26 C8.8859375,26 9,26.1825 9,26.4076667 L9,27.5921667 C9,27.8173333 8.8859375,28 8.74520833,28 L4.25489583,28 C4.11416667,28 4,27.8173333 4,27.5921667 L4,26.4076667 C4,26.1825 4.11416667,26 4.25489583,26" id="Fill-13" fill="#5A1584"></path>
                <path d="M23.4078333,31 L25.5923333,31 C25.8175,31 26,31.1825 26,31.4076667 L26,32.5921667 C26,32.8173333 25.8175,33 25.5923333,33 L23.4078333,33 C23.1826667,33 23,32.8173333 23,32.5921667 L23,31.4076667 C23,31.1825 23.1826667,31 23.4078333,31" id="Fill-15" fill="#5A1584"></path>
                <path d="M16.2548958,31 L20.7452083,31 C20.8859375,31 21,31.1825 21,31.4076667 L21,32.5921667 C21,32.8173333 20.8859375,33 20.7452083,33 L16.2548958,33 C16.1141667,33 16,32.8173333 16,32.5921667 L16,31.4076667 C16,31.1825 16.1141667,31 16.2548958,31" id="Fill-17" fill="#5A1584"></path>
                <path d="M4.26389216,31 L14.7362157,31 C14.8819118,31 15,31.1825 15,31.4076667 L15,32.5921667 C15,32.8173333 14.8819118,33 14.7362157,33 L4.26389216,33 C4.11819608,33 4,32.8173333 4,32.5921667 L4,31.4076667 C4,31.1825 4.11819608,31 4.26389216,31" id="Fill-19" fill="#5A1584"></path>
                <path d="M20.7497573,17.4998676 C20.7497573,20.027948 19.22718,22.3065536 16.8915963,23.2741407 C14.5560125,24.2413112 11.8680391,23.7066331 10.0805706,21.9191646 C8.29310218,20.1316962 7.75842411,17.4437228 8.72559454,15.108139 C9.69318163,12.7725552 11.9717873,11.2499779 14.4998676,11.2499779 C17.9499109,11.2540404 20.7456949,14.0498244 20.7497573,17.4998676 M7,17.4998676 C7,20.5332516 8.82736358,23.267995 11.6296058,24.428912 C14.4323688,25.5897249 17.6581452,24.9480695 19.802899,22.802899 C21.9480695,20.6581452 22.5897249,17.4323688 21.428912,14.6296058 C20.267995,11.8273636 17.5332516,10 14.4998676,10 C10.3597324,10.0048957 7.00489575,13.3597324 7,17.4998676" id="Fill-21" fill="#5A1584"></path>
                <g id="Group-25">
                    <mask id="mask-2" fill="white">
                        <use xlink:href="#path-1"></use>
                    </mask>
                    <g id="Clip-24"></g>
                    <path d="M3.02081319,1.20002 L18.3323097,1.20002 C18.4656292,1.20002 18.5989486,1.21482 18.7291465,1.24382 L18.7291465,7.20002 C18.7311604,8.85622 20.0822785,10.19802 21.7499799,10.20002 L25.3749799,10.20002 L25.3749799,9.00002 L21.7499799,9.00002 C20.7492785,8.99882 19.9386882,8.19382 19.9374799,7.20002 L19.9374799,2.04842 L27.2606847,9.32112 C27.6016361,9.65822 27.7928549,10.11642 27.7916522,10.59412 L27.7916522,17.40002 L22.9583132,17.40002 L22.9583132,18.60002 L27.7916522,18.60002 L27.7916522,33.00002 C27.7904382,33.99382 26.9798479,34.79882 25.9791465,34.80002 L3.02081319,34.80002 C2.02011181,34.79882 1.20952153,33.99382 1.20831319,33.00002 L1.20831319,18.60002 L6.04164653,18.60002 L6.04164653,17.40002 L1.20831319,17.40002 L1.20831319,3.00002 C1.20952153,2.00622 2.02011181,1.20122 3.02081319,1.20002 L3.02081319,1.20002 Z M-2.01388889e-05,33.00002 C0.00199375,34.65622 1.35311181,35.99802 3.02081319,36.00002 L25.9791465,36.00002 C27.6468479,35.99802 28.997966,34.65622 28.9999903,33.00002 L28.9999903,10.59412 C29.0020944,9.79802 28.6836986,9.03402 28.1153792,8.47272 L20.4684417,0.87892 C19.9032437,0.31412 19.1339382,-0.00228 18.3323097,7.54768635e-06 L3.02081319,7.54768635e-06 C1.35311181,0.00202 0.00199375,1.34382 -2.01388889e-05,3.00002 L-2.01388889e-05,33.00002 Z" id="Fill-23" fill="#5A1584" mask="url(#mask-2)"></path>
                </g>
                <path d="M12.5916395,15.0459018 L13.0066951,15.3385798 C11.3808466,16.1220394 10.6092946,18.0833546 11.1948857,19.8369075 C11.2397334,19.9713241 11.3846553,20.036319 11.5082484,19.9792724 L12.1304984,19.692128 C12.242094,19.6406151 12.2948448,19.5080095 12.256948,19.3857668 C12.088412,18.841762 12.1076461,18.2494637 12.3154119,17.7155199 C12.5503149,17.1114502 13.0071712,16.6331444 13.5815265,16.3906714 L13.3890908,17.0010796 C13.3485279,17.1299626 13.4144188,17.2693092 13.5363932,17.3122702 L14.1782582,17.5384442 C14.3003277,17.5815058 14.4323,17.5117822 14.4729581,17.3827986 L14.9705677,15.8054159 C15.0521696,15.5472475 14.9599033,15.2631214 14.7456626,15.1122046 L13.2255062,14.0413993 C13.1184811,13.9659409 12.9738448,13.9965267 12.9025265,14.1096137 L12.5270817,14.7046285 C12.4557633,14.8177155 12.4846144,14.9704434 12.5916395,15.0459018" id="Fill-26" fill="#5A1584"></path>
                <path d="M14.8217114,18.4614764 C14.6996383,18.418515 14.5677575,18.4881386 14.527003,18.6171232 L14.0293792,20.1946191 C13.9478702,20.4527896 14.0401391,20.7369179 14.2543859,20.887836 L15.7744906,21.9586498 C15.8815188,22.0340082 16.0261592,22.0035227 16.0975748,21.8903342 L16.4729352,21.2954153 C16.5442555,21.1823274 16.5154036,21.0294977 16.4083755,20.9540387 L15.993308,20.6614589 C17.6194888,19.8779931 18.3908724,17.9165616 17.8048836,16.1629947 C17.7599394,16.0286776 17.6150134,15.9636822 17.491512,16.0207293 L16.8695298,16.3077754 C16.757931,16.3592887 16.7051787,16.491996 16.7430766,16.6142396 C16.9117126,17.1582488 16.8923828,17.7505518 16.6847062,18.2844998 C16.4497013,18.8885744 15.9929271,19.366884 15.4185553,19.609359 L15.6109013,18.9989458 C15.6515606,18.8700618 15.5855726,18.7306135 15.4635948,18.6876522 L14.8217114,18.4614764 Z" id="Fill-28" fill="#5A1584"></path>
            </g>
        </g>
    </g>
</svg>